```sh
Input #0, matroska,webm, from 'example.mkv':
	Metadata:
	ENCODER: Lavf 60.16.100
	Duration: 00:28:47.96, start: 0.000000, bitrate: 8114 kb/s
	Stream #0:0(jpn): Video: h264 (High), yuv420p(tv, bt709, progressive), 1920x1080 [SAR 1:1 DAR 16:9], 23.98 fps, 23.98 tbr, 1k tbn (default)
		Metadata:
		BPS: 7983155
		NUMBER_OF_FRAMES: 41428
		NUMBER_OF_BYTES: 1724256703
		_STATISTICS_WRITING_APP: mkvmerge v81.0 ('Milliontown') 64-bit
		_STATISTICS_WRITING_DATE_UTC: 2023-12-29 16:21:02
		_STATISTICS_TAGS: BPS DURATION NUMBER_OF_FRAMES NUMBER_OF_BYTES
		DURATION: 00:28:47.894000000
```

Certainly! The output you've provided appears to be from the `ffmpeg` tool, which is giving information about a media file, in this case, a Matroska file (.mkv). Here's what the output information means:

- **Input #0, matroska,webm, from 'example.mkv':** This line indicates the input file being processed is a Matroska or WebM container format with the filename `example.mkv`.
- **Metadata:** This section provides metadata associated with the file:
  - `ENCODER: Lavf 60.16.100` indicates the file was encoded using libavformat version 60.16.100.
- **Duration: 00:28:47.96, start: 0.000000, bitrate: 8114 kb/s:**
  - `Duration` specifies the total length of the video, which is 28 minutes, 47 seconds, and 96 milliseconds.
  - `start` gives the start time of the file in seconds (in this case, it starts from the beginning).
  - `bitrate` indicates the average bitrate of the file, which is 8114 kilobits per second (kb/s).
- **Stream #0:0(jpn): Video: h264 (High), yuv420p(tv, bt709, progressive), 1920x1080 [SAR 1:1 DAR 16:9], 23.98 fps, 23.98 tbr, 1k tbn (default):** This line describes the first stream in the file, which is the video stream:
  - `jpn` suggests that the language of this stream is Japanese.
  - `h264(High)` is the video codec used, with a profile of High.
  - `yuv420p(tv, bt709, progressive)` indicates the pixel format (YUV with a 4:2:0 chroma subsampling), the color space (BT.709, which is standard for HD video), and that the video is progressive (as opposed to interlaced).
  - `1920x1080` is the resolution of the video.
  - `SAR 1:1` signifies the Sample Aspect Ratio is 1:1, meaning the pixels are square.
  - `DAR 16:9` is the Display Aspect Ratio, which is the widescreen aspect ratio.
  - `23.98 fps` is the frame rate of the video.
  - `23.98 tbr` is the time base rate, which in this context is essentially the same as the frame rate.
  - `1k tbn` is the time base in kilohertz, which is the unit for timestamps in the stream.
  - `(default)` means that this is the default stream to be played.
- The **Metadata** for the stream provides additional details:
  - `BPS` indicates the average number of bits per second used for this stream, which is 7983155 bits/s.
  - `NUMBER_OF_FRAMES` is the total number of frames in the video stream, which is 41428.
  - `NUMBER_OF_BYTES` shows the total number of bytes, which is 1724256703.
  - `_STATISTICS_WRITING_APP` shows the application used to write the statistics, `mkvmerge v81.0 ('Milliontown') 64-bit`.
  - `_STATISTICS_WRITING_DATE_UTC` shows the UTC date and time when the statistics were written, which is 2023-12-29 at 16:21:02.
  - `STATISTICS_TAGS` lists the tags included in the statistics metadata.
  - `DURATION` gives the precise duration of the stream, which is slightly different from the duration mentioned above, possibly due to rounding or a different time base.

In summary, the output provides detailed technical information about the video file, including its format, length, encoding details, video stream properties, and metadata related to the statistics of the encoding process.